<svg xmlns="http://www.w3.org/2000/svg" viewBox="0 0 2000 700" width="2000" height="700">
  <rect width="2000" height="700" fill="none"/>
  <!-- Cargo Van High Roof - Side View -->
  <path d="M 150,480 L 150,180 Q 160,100 220,90 L 650,80 Q 750,75 820,95 L 860,120 L 1880,120 L 1890,200 L 1900,480 Z" fill="none" stroke="white" stroke-width="3"/>
  <line x1="860" y1="120" x2="860" y2="480" stroke="white" stroke-width="2" stroke-dasharray="8,4"/>
  <path d="M 220,105 L 760,90 L 810,115 L 810,300 L 230,300 Z" fill="none" stroke="white" stroke-width="2"/>
  <rect x="1730" y="125" width="155" height="350" fill="none" stroke="white" stroke-width="2" stroke-dasharray="6,3"/>
  <circle cx="360" cy="500" r="85" fill="none" stroke="white" stroke-width="3"/>
  <circle cx="360" cy="500" r="42" fill="none" stroke="white" stroke-width="2"/>
  <circle cx="1680" cy="500" r="85" fill="none" stroke="white" stroke-width="3"/>
  <circle cx="1680" cy="500" r="42" fill="none" stroke="white" stroke-width="2"/>
  <text x="1300" y="280" fill="#9299b5" font-size="24" font-family="sans-serif" text-anchor="middle">DRIVER SIDE</text>
  <text x="1300" y="308" fill="#5a6080" font-size="18" font-family="sans-serif" text-anchor="middle">228" × 88"  HIGH ROOF</text>
  <text x="1808" y="300" fill="#9299b5" font-size="16" font-family="sans-serif" text-anchor="middle">REAR</text>
</svg>
