<?xml version="1.0" encoding="UTF-8"?>
<svg id="ART" xmlns="http://www.w3.org/2000/svg" version="1.1" viewBox="0 0 4000 4000">
  <defs>
    <style>
      .st0 {
        font-family: Poppins-Bold, Poppins;
        font-size: 614.15px;
        font-weight: 700;
      }

      .st0, .st1, .st2 {
        fill: #fff;
      }

      .st1 {
        font-family: Poppins-SemiBold, Poppins;
        font-size: 273.74px;
        font-weight: 600;
      }
    </style>
  </defs>
  <rect width="4000" height="4000"/>
  <g>
    <g>
      <g>
        <path class="st2" d="M882.95,1049.63s127.08,84.37,510.47,65.14c0,0,138.83-14.95,190.09,52.33,51.26,67.28,416.49,510.47,416.49,510.47v276.59l-516.87-630.07s-29.9-30.97-74.75-30.97-218.92,2.14-218.92,2.14c0,0-253.1,8.54-306.49-245.62Z"/>
        <path class="st2" d="M1463.37,1359.33l124.41,150.58h-316.1s-207.71,12.82-292.61-203.44c0,0,59.8,46.45,205.04,51.26,145.24,4.81,279.26,1.6,279.26,1.6Z"/>
        <path class="st2" d="M1768.26,1736.31l-125.48-161.79-363.63,2.67s-70.48,2.67-97.71-11.21c0,0,56.07,143.1,234.94,154.85,178.88,11.75,312.9-12.28,351.88,15.48Z"/>
      </g>
      <g>
        <path class="st2" d="M3117.05,1049.63s-127.08,84.37-510.47,65.14c0,0-138.83-14.95-190.09,52.33-51.26,67.28-416.49,510.47-416.49,510.47v276.59s516.87-630.07,516.87-630.07c0,0,29.9-30.97,74.75-30.97,44.85,0,218.92,2.14,218.92,2.14,0,0,253.1,8.54,306.49-245.62Z"/>
        <path class="st2" d="M2536.63,1359.33l-124.41,150.58h316.1s207.71,12.82,292.61-203.44c0,0-59.8,46.45-205.04,51.26-145.24,4.81-279.26,1.6-279.26,1.6Z"/>
        <path class="st2" d="M2231.74,1736.31l125.48-161.79,363.63,2.67s70.48,2.67,97.71-11.21c0,0-56.07,143.1-234.94,154.85-178.88,11.75-312.9-12.28-351.88,15.48Z"/>
      </g>
      <path class="st2" d="M2202.2,1107.51c-107.33-109.46-269.65-57.13-346.54-18.69-76.89,38.45-149.78,52.6-149.78,52.6,26.16,44.05,85.7,53.66,85.7,53.66-52.86,58.74-62.58,151.63-62.58,151.63-3.67,22.34-.43,41.13-.43,41.13l258.97,315.57,164.46-201.3c-103.59-102.52-32.57-242.42,40.58-261.64,73.15-19.22,124.95,19.92,124.95,19.92,51.79-148.81-115.34-152.87-115.34-152.87ZM2142.42,1149.35c-14.82-3-23.03,14.02-23.03,14.02h-15.42c-15.22-31.24-61.87-32.44-61.87-32.44l-6.81-14.22,6.81,5.81c94.51-17.62,115.74,27.23,115.74,27.23,0,0-.6,2.6-15.42-.4Z"/>
    </g>
    <text class="st0" transform="translate(1368.35 2517.1)"><tspan x="0" y="0">USA</tspan></text>
    <text class="st1" transform="translate(1166.47 2795.66)"><tspan x="0" y="0">WRAP CO.</tspan></text>
  </g>
</svg>
